<svg width="24" height="24" viewBox="0 0 24 24" fill="none" xmlns="http://www.w3.org/2000/svg">
  <path d="M19.5392 18.3779L16.2929 15.1303C17.2662 13.862 17.7207 12.2709 17.564 10.6798C17.4073 9.08876 16.6513 7.61686 15.4492 6.56271C14.2472 5.50855 12.6891 4.95108 11.0912 5.00337C9.49319 5.05567 7.97494 5.71382 6.84439 6.84431C5.71385 7.9748 5.05567 9.49298 5.00337 11.0909C4.95107 12.6888 5.50857 14.2468 6.56278 15.4487C7.61698 16.6507 9.08895 17.4067 10.6801 17.5634C12.2712 17.7201 13.8624 17.2657 15.1308 16.2924L18.3798 19.5419C18.4562 19.6182 18.5467 19.6788 18.6464 19.7201C18.7461 19.7614 18.853 19.7826 18.9609 19.7826C19.0688 19.7826 19.1757 19.7614 19.2753 19.7201C19.375 19.6788 19.4656 19.6182 19.5419 19.5419C19.6182 19.4656 19.6788 19.3751 19.7201 19.2754C19.7614 19.1757 19.7826 19.0688 19.7826 18.9609C19.7826 18.853 19.7614 18.7462 19.7201 18.6465C19.6788 18.5468 19.6182 18.4562 19.5419 18.3799L19.5392 18.3779ZM6.65439 11.3024C6.65439 10.3831 6.92701 9.48446 7.43777 8.72008C7.94854 7.9557 8.67451 7.35993 9.52389 7.00813C10.3733 6.65632 11.3079 6.56427 12.2096 6.74362C13.1113 6.92297 13.9395 7.36566 14.5896 8.01572C15.2397 8.66577 15.6824 9.49399 15.8618 10.3956C16.0411 11.2973 15.9491 12.2319 15.5972 13.0812C15.2454 13.9305 14.6496 14.6565 13.8852 15.1672C13.1208 15.678 12.2221 15.9506 11.3027 15.9506C10.0703 15.9493 8.88871 15.4592 8.01725 14.5878C7.14579 13.7164 6.65565 12.5348 6.65439 11.3024Z" fill="white"/>
</svg>
